<svg id="visual" viewBox="0 0 470 900" width="470" height="900" xmlns="http://www.w3.org/2000/svg" xmlns:xlink="http://www.w3.org/1999/xlink" version="1.1"><rect x="0" y="0" width="470" height="900" fill="#080808"></rect><defs><linearGradient id="grad1_0" x1="0%" y1="100%" x2="100%" y2="0%"><stop offset="30%" stop-color="#0d89ea" stop-opacity="1"></stop><stop offset="70%" stop-color="#0d89ea" stop-opacity="1"></stop></linearGradient></defs><defs><linearGradient id="grad1_1" x1="0%" y1="100%" x2="100%" y2="0%"><stop offset="30%" stop-color="#0d89ea" stop-opacity="1"></stop><stop offset="70%" stop-color="#234671" stop-opacity="1"></stop></linearGradient></defs><defs><linearGradient id="grad1_2" x1="0%" y1="100%" x2="100%" y2="0%"><stop offset="30%" stop-color="#080808" stop-opacity="1"></stop><stop offset="70%" stop-color="#234671" stop-opacity="1"></stop></linearGradient></defs><defs><linearGradient id="grad2_0" x1="0%" y1="100%" x2="100%" y2="0%"><stop offset="30%" stop-color="#0d89ea" stop-opacity="1"></stop><stop offset="70%" stop-color="#0d89ea" stop-opacity="1"></stop></linearGradient></defs><defs><linearGradient id="grad2_1" x1="0%" y1="100%" x2="100%" y2="0%"><stop offset="30%" stop-color="#234671" stop-opacity="1"></stop><stop offset="70%" stop-color="#0d89ea" stop-opacity="1"></stop></linearGradient></defs><defs><linearGradient id="grad2_2" x1="0%" y1="100%" x2="100%" y2="0%"><stop offset="30%" stop-color="#234671" stop-opacity="1"></stop><stop offset="70%" stop-color="#080808" stop-opacity="1"></stop></linearGradient></defs><g transform="translate(470, 900)"><path d="M-352.5 0C-347.3 -48.7 -342.1 -97.5 -317.8 -131.6C-293.6 -165.8 -250.2 -185.4 -219.2 -219.2C-188.2 -253 -169.4 -301.1 -134.9 -325.7C-100.4 -350.3 -50.2 -351.4 0 -352.5L0 0Z" fill="#1b273b"></path><path d="M-235 0C-231.5 -32.5 -228.1 -65 -211.9 -87.8C-195.7 -110.5 -166.8 -123.6 -146.1 -146.1C-125.4 -168.7 -112.9 -200.7 -89.9 -217.1C-66.9 -233.5 -33.5 -234.3 0 -235L0 0Z" fill="#2266ab"></path><path d="M-117.5 0C-115.8 -16.2 -114 -32.5 -105.9 -43.9C-97.9 -55.3 -83.4 -61.8 -73.1 -73.1C-62.7 -84.3 -56.5 -100.4 -45 -108.6C-33.5 -116.8 -16.7 -117.1 0 -117.5L0 0Z" fill="#0d89ea"></path></g><g transform="translate(0, 0)"><path d="M352.5 0C328.8 37.8 305 75.7 291.9 120.9C278.8 166.2 276.4 218.9 249.3 249.3C222.1 279.6 170.4 287.7 124.8 301.2C79.1 314.7 39.6 333.6 0 352.5L0 0Z" fill="#1b273b"></path><path d="M235 0C219.2 25.2 203.4 50.4 194.6 80.6C185.9 110.8 184.2 145.9 166.2 166.2C148.1 186.4 113.6 191.8 83.2 200.8C52.7 209.8 26.4 222.4 0 235L0 0Z" fill="#2266ab"></path><path d="M117.5 0C109.6 12.6 101.7 25.2 97.3 40.3C92.9 55.4 92.1 73 83.1 83.1C74 93.2 56.8 95.9 41.6 100.4C26.4 104.9 13.2 111.2 0 117.5L0 0Z" fill="#0d89ea"></path></g></svg>